<?xml version="1.0" encoding="UTF-8"?>
<svg id="Layer_2" data-name="Layer 2" xmlns="http://www.w3.org/2000/svg" viewBox="0 0 335.04 533.67">
  <defs>
    <style>
      .cls-1 {
        fill: #161038;
      }

      .cls-1, .cls-2, .cls-3 {
        fill-rule: evenodd;
      }

      .cls-2 {
        fill: #034ea1;
      }

      .cls-3 {
        fill: #4eb3bd;
      }
    </style>
  </defs>
  <g id="Layer_1-2" data-name="Layer 1">
    <g>
      <path class="cls-3" d="m0,354.43C62.64,162.74,279.52,174.32,194.06,0,138.57,156.95,46.3,114.74,0,354.43"/>
      <path class="cls-1" d="m125.94,507.18c34.77,6.97,60.9,9.94,87.83,2.93,86.97-22.63,125.33-106.46,82.43-213.9,127.43,154.21-87.83,311.84-226.57,199.37h-.07c-20.09-179.57,146.93-184.48,192.42-273.94,32.39,148.81-180.98,78.95-136.05,285.53"/>
      <path class="cls-2" d="m35.75,456.56C-.68,246.84,176.36,235.26,242.07,109.29c37.45,167.85-173.3,127.33-206.32,347.28"/>
    </g>
  </g>
</svg>